<?xml version="1.0" standalone="no"?>
<!DOCTYPE svg PUBLIC "-//W3C//DTD SVG 20010904//EN"
 "http://www.w3.org/TR/2001/REC-SVG-20010904/DTD/svg10.dtd">
<svg version="1.0" xmlns="http://www.w3.org/2000/svg"
 width="777.000000pt" height="154.000000pt" viewBox="0 0 777.000000 154.000000"
 preserveAspectRatio="xMidYMid meet">

<g transform="translate(0.000000,154.000000) scale(0.100000,-0.100000)"
fill="#000000" stroke="none">
<path d="M480 790 l0 -510 40 0 40 0 0 510 0 510 -40 0 -40 0 0 -510z"/>
<path d="M1075 1288 c-3 -7 -4 -238 -3 -513 l3 -500 40 0 40 0 -1 433 c-1 238
2 430 7 425 4 -4 78 -132 164 -283 181 -316 190 -330 214 -330 16 0 93 127
348 578 13 23 26 42 28 42 2 0 1 -196 -2 -435 l-6 -435 46 0 47 0 0 515 0 515
-39 0 -39 0 -175 -302 c-96 -167 -182 -318 -192 -337 l-17 -34 -49 89 c-26 49
-113 199 -191 334 l-143 245 -38 3 c-24 2 -39 -1 -42 -10z"/>
<path d="M691 1276 c-48 -26 -64 -92 -37 -144 8 -15 48 -60 88 -99 l73 -73 82
83 c93 93 109 123 93 173 -21 64 -90 92 -155 62 -19 -9 -28 -9 -37 0 -16 16
-77 15 -107 -2z"/>
<path d="M2540 780 l0 -510 110 0 110 0 0 205 0 205 230 0 230 0 0 100 0 100
-230 0 -230 0 0 110 0 110 260 0 260 0 0 95 0 95 -370 0 -370 0 0 -510z"/>
<path d="M3382 783 l3 -508 395 0 395 0 3 92 3 93 -291 0 -290 0 0 110 0 110
235 0 236 0 -3 98 -3 97 -232 3 -233 2 0 110 0 110 263 2 262 3 3 93 3 92
-376 0 -375 0 2 -507z"/>
<path d="M4310 780 l0 -510 100 0 100 0 2 347 3 348 255 -348 254 -347 98 0
98 0 0 510 0 510 -100 0 -100 0 -2 -310 -3 -311 -220 310 -220 310 -132 1
-133 0 0 -510z"/>
<path d="M5370 780 l0 -510 100 0 100 0 2 345 3 344 251 -342 251 -342 96 -3
97 -3 0 511 0 510 -95 0 -95 0 0 -317 0 -316 -226 316 -226 317 -129 0 -129 0
0 -510z"/>
<path d="M6796 1258 c-7 -18 -109 -242 -226 -498 -116 -256 -214 -471 -217
-477 -4 -10 19 -13 97 -13 l101 0 56 115 55 115 256 -2 256 -3 49 -113 50
-112 109 0 c60 0 107 3 105 8 -2 4 -105 233 -228 509 l-224 503 -112 0 -113 0
-14 -32z m214 -358 c40 -96 75 -181 77 -187 4 -10 -32 -13 -161 -13 -91 0
-166 3 -166 7 0 19 164 382 170 376 4 -5 39 -87 80 -183z"/>
</g>
</svg>
